<?xml version="1.0" encoding="UTF-8"?> <svg xmlns="http://www.w3.org/2000/svg" xmlns:xlink="http://www.w3.org/1999/xlink" viewBox="0 0 315.27 404.03"><defs><style>.cls-1{fill:#acbae0;}.cls-2{fill:#fff;}.cls-3{fill:#f0587c;}.cls-4{fill:#828ec7;}.cls-5{fill:#d9e1f3;}.cls-6{fill:#c4d3ed;}.cls-7{fill:url(#linear-gradient);}.cls-8{fill:url(#linear-gradient-2);}.cls-9{fill:url(#linear-gradient-3);}.cls-10{fill:#514ea1;}.cls-11{fill:url(#linear-gradient-4);}.cls-12{fill:url(#linear-gradient-5);}.cls-13{fill:#2e3192;}.cls-14{fill:url(#linear-gradient-6);}.cls-15{fill:url(#linear-gradient-7);}.cls-16{fill:#eef1f9;}.cls-17{fill:url(#linear-gradient-8);}.cls-18{fill:#625ea9;}.cls-19{fill:url(#linear-gradient-9);}.cls-20{fill:url(#linear-gradient-10);}.cls-21{fill:url(#linear-gradient-11);}.cls-22{fill:url(#linear-gradient-12);}.cls-23{fill:url(#linear-gradient-13);}.cls-24{fill:#ffd93a;}.cls-25{fill:#495ca9;}.cls-26{fill:url(#linear-gradient-14);}.cls-27{fill:url(#linear-gradient-15);}.cls-28{fill:url(#linear-gradient-16);}</style><linearGradient id="linear-gradient" x1="1668.67" y1="383.41" x2="1703.77" y2="383.41" gradientTransform="matrix(-1, 0, 0, 1, 1836.5, 0)" gradientUnits="userSpaceOnUse"><stop offset="0" stop-color="#c4d3ed"></stop><stop offset="1" stop-color="#d9e1f3"></stop></linearGradient><linearGradient id="linear-gradient-2" x1="150.5" y1="381.15" x2="150.5" y2="260.45" gradientUnits="userSpaceOnUse"><stop offset="0" stop-color="#fff"></stop><stop offset="1" stop-color="#e9edf7"></stop></linearGradient><linearGradient id="linear-gradient-3" x1="232.62" y1="127.53" x2="197.58" y2="192.86" gradientUnits="userSpaceOnUse"><stop offset="0" stop-color="#fac5c5"></stop><stop offset="1" stop-color="#ffdea9"></stop></linearGradient><linearGradient id="linear-gradient-4" x1="1494.32" y1="282.83" x2="1513.18" y2="282.83" gradientTransform="matrix(-1, 0, 0, 1, 1751.79, 0)" gradientUnits="userSpaceOnUse"><stop offset="0" stop-color="#f8c1d9"></stop><stop offset="1" stop-color="#ffdea9"></stop></linearGradient><linearGradient id="linear-gradient-5" x1="1513.47" y1="272.54" x2="1531.63" y2="272.54" gradientTransform="matrix(-1, 0, 0, 1, 1751.79, 0)" gradientUnits="userSpaceOnUse"><stop offset="0" stop-color="#f6abcc"></stop><stop offset="1" stop-color="#ffdea9"></stop></linearGradient><linearGradient id="linear-gradient-6" x1="241.18" y1="106.22" x2="241.18" y2="146.22" gradientTransform="matrix(1, 0, 0, 1, 0, 0)" xlink:href="#linear-gradient-5"></linearGradient><linearGradient id="linear-gradient-7" x1="197.51" y1="108.88" x2="197.51" y2="140.35" gradientTransform="translate(51.39 -28.1) rotate(4.09)" xlink:href="#linear-gradient-4"></linearGradient><linearGradient id="linear-gradient-8" x1="522.93" y1="251.99" x2="453.77" y2="66.35" gradientTransform="matrix(-1, 0, 0, 1, 742.23, 0)" xlink:href="#linear-gradient-4"></linearGradient><linearGradient id="linear-gradient-9" x1="490.66" y1="135.06" x2="509.95" y2="135.06" gradientTransform="matrix(-1, 0, 0, 1, 666.45, 0)" xlink:href="#linear-gradient-4"></linearGradient><linearGradient id="linear-gradient-10" x1="146.4" y1="150.72" x2="165.01" y2="133.46" gradientTransform="matrix(1, 0, 0, 1, 0, 0)" xlink:href="#linear-gradient-5"></linearGradient><linearGradient id="linear-gradient-11" x1="122.29" y1="161.92" x2="137.97" y2="216.77" gradientUnits="userSpaceOnUse"><stop offset="0" stop-color="#e7bac1"></stop><stop offset="1" stop-color="#ffdea9"></stop></linearGradient><linearGradient id="linear-gradient-12" x1="203.44" y1="176.06" x2="119.4" y2="182.53" xlink:href="#linear-gradient-11"></linearGradient><linearGradient id="linear-gradient-13" x1="232.21" y1="122.07" x2="194.7" y2="192" xlink:href="#linear-gradient-3"></linearGradient><linearGradient id="linear-gradient-14" x1="64.39" y1="120.77" x2="78.13" y2="105.73" gradientUnits="userSpaceOnUse"><stop offset="0" stop-color="#f36e36"></stop><stop offset="0.63" stop-color="#fdb73b"></stop><stop offset="1" stop-color="#faa53a"></stop></linearGradient><linearGradient id="linear-gradient-15" x1="64.39" y1="168.18" x2="78.13" y2="153.15" xlink:href="#linear-gradient-14"></linearGradient><linearGradient id="linear-gradient-16" x1="64.39" y1="213.72" x2="78.13" y2="198.69" xlink:href="#linear-gradient-14"></linearGradient></defs><title>reviews</title><g id="Communication"><polygon class="cls-1" points="58.46 107.44 119.46 72.22 119.46 100.4 72.64 127.46 66.37 138.32 66.35 131.09 58.46 135.62 58.46 107.44"></polygon><polygon class="cls-2" points="113.03 82.43 113.03 84.28 64.17 112.5 64.17 110.65 113.03 82.43"></polygon><polygon class="cls-2" points="99.74 103.44 99.75 105.3 64.17 125.82 64.17 123.97 99.74 103.44"></polygon><polygon class="cls-2" points="113.03 89.1 113.03 90.94 64.17 119.16 64.17 117.31 113.03 89.1"></polygon><polygon class="cls-1" points="58.46 200.4 119.46 165.18 119.46 193.35 72.64 220.41 66.37 231.27 66.35 224.04 58.46 228.57 58.46 200.4"></polygon><polygon class="cls-2" points="113.03 175.38 113.03 177.24 64.17 205.45 64.17 203.6 113.03 175.38"></polygon><polygon class="cls-2" points="99.74 196.39 99.75 198.25 64.17 218.78 64.17 216.92 99.74 196.39"></polygon><polygon class="cls-2" points="113.03 182.05 113.03 183.89 64.17 212.11 64.17 210.26 113.03 182.05"></polygon><polygon class="cls-3" points="58.46 155.27 119.46 120.05 119.46 148.23 111.65 152.76 111.67 159.99 105.36 156.39 58.46 183.45 58.46 155.27"></polygon><polygon class="cls-2" points="100.46 150.85 100.46 152.71 64.88 173.24 64.88 171.39 100.46 150.85"></polygon><polygon class="cls-2" points="113.74 136.51 113.74 138.36 64.88 166.57 64.88 164.73 113.74 136.51"></polygon><polygon class="cls-2" points="113.74 129.85 113.74 131.7 64.88 159.92 64.88 158.06 113.74 129.85"></polygon><polygon class="cls-4" points="58.46 249.39 119.47 214.16 119.47 234.33 111.65 238.86 111.67 246.09 105.35 242.5 58.46 269.56 58.46 249.39"></polygon><path class="cls-2" d="M81.52,243.88c1-.57,1.77-.11,1.78,1a3.88,3.88,0,0,1-1.77,3c-1,.56-1.76.11-1.76-1A3.87,3.87,0,0,1,81.52,243.88Z"></path><path class="cls-2" d="M89,239.59c1-.56,1.76-.11,1.76,1a3.87,3.87,0,0,1-1.75,3c-1,.56-1.76.11-1.77-1A3.88,3.88,0,0,1,89,239.59Z"></path><path class="cls-2" d="M96.39,235.3c1-.56,1.76-.11,1.76,1a3.85,3.85,0,0,1-1.75,3c-1,.56-1.77.11-1.77-1A3.83,3.83,0,0,1,96.39,235.3Z"></path><path class="cls-5" d="M55,333v9.55l-.33-.22c-4.15-2.49-8.14-6.52-8.3-11.65v-9.81Z"></path><polygon class="cls-5" points="129.2 376.12 129.2 385.67 55.02 342.55 55.02 333 129.2 376.12"></polygon><path class="cls-6" d="M245.87,333c5.89-3.39,8.82-7.85,8.81-12.3v9.55c0,4.45-2.84,8.9-8.72,12.3l-74.74,43.12v-9.55Z"></path><path class="cls-7" d="M129.2,376.12h42v9.55a30.94,30.94,0,0,1-4.21,2,2.5,2.5,0,0,1-.25.09,48.2,48.2,0,0,1-31.68.43,33.57,33.57,0,0,1-5.88-2.56Z"></path><path class="cls-8" d="M55.05,308.63l74.68-43.12c11.68-6.74,30.54-6.74,42.14,0l74.2,43.12c11.54,6.71,11.48,17.63-.2,24.37l-74.65,43.12c-11.61,6.71-30.48,6.71-42,0L55,333C43.42,326.26,43.43,315.33,55.05,308.63Z"></path></g><g id="Partnership"><path class="cls-9" d="M235,123.37s-5.19-.75-8.21,1.44a9.48,9.48,0,0,0-2.19,2.31c-1.9,2.77-2.79,13.26-5.1,26.39a56,56,0,0,0-5,6.89c-1.91,3.38-6.11,8.39-7.57,9.47l-4.32,3.43-1.24,4.79,8.16.89,2.51-6.65a18.39,18.39,0,0,1,3.47-4.53c2.66-2.49,3.41-2.57,5.74-5.38,1.44-1.75,3.3-3.84,4-6,.54-1.72,3-6,3.67-9.64S235,123.37,235,123.37Z"></path><path class="cls-10" d="M219.85,149.25a16.08,16.08,0,0,0,8.34,2.49s5.14-26.23,5.21-27c.17-1.86-.54-2.34-3.85-1.63-4.42,1-6.09,4.53-7,8.07C221.89,134,220,148.62,219.85,149.25Z"></path><path class="cls-11" d="M247.53,274.25c2.21-.18,4.42-.37,6.63-.34-.35,2.15-.73,4.31-1.14,6.45s-.74,7.6-2.14,9.41c-1.93,2.53-11,2.23-11.27,1.34,1.13-2.78,3.4-3.95,4.58-6.52C245.91,280.87,247.37,279.07,247.53,274.25Z"></path><path class="cls-12" d="M225.36,276.31c2.62-3.28,3.73-7.46,3.83-12.59,2.21,0,4.41.06,6.62.07-.9,4.27-1.81,8.57-1.36,11.62.33,2.28-3.32,3.76-3.32,3.76s-6.44,2.21-11,2.2C222.72,280,223.87,278.18,225.36,276.31Z"></path><path class="cls-13" d="M241.53,287.55c.1-.78-2.34,4-7.26,5.2a1.81,1.81,0,0,0,0,3.43,15.74,15.74,0,0,0,9.06,1.1c5.21-1,4.93-4.11,9-4.11,1.57,0,.33-9.6.33-9.6a9.46,9.46,0,0,1-7.88,5.89C242.42,289.74,241.25,289.67,241.53,287.55Z"></path><path class="cls-13" d="M224.3,277.3c.09-.73-2.21,3.75-6.86,4.91a1.7,1.7,0,0,0,0,3.23c2.38,1,5.33,2.09,8.62,1,2.05-.69,4.73-3.91,8.43-4.11,1.47-.09.34-8.78.34-8.78a8.94,8.94,0,0,1-7.43,5.56C225.14,279.36,224,279.3,224.3,277.3Z"></path><path class="cls-13" d="M225.37,172.42c.53-1.83,1.26-4.23,1.86-6.75,10.1,4.26,23,.34,23.09.68,2.35,7,5,13.94,7.25,21a44.81,44.81,0,0,1,2,12.79c0,1.63-1.17,21.81-2.37,41.27-1.11,18-2.22,35.38-2.34,36.89a14.31,14.31,0,0,1-9.92-.35c1.66-4.39.35-34,.35-34l-7-40.69-.71,33.94s0,27.86.4,33.34c-3.25,2-8.94,1.53-12-.13-.1-.05.71-29.18.71-29.18s-6.56-36-5.66-45.34A130.55,130.55,0,0,1,225.37,172.42Z"></path><path class="cls-10" d="M255.25,138.16s.21-5.14.12-8.53c-.05-2-4.23-4.45-6.15-5.14S236,140.56,236,140.56l-.93-18.2s-1.37-.41-4.45.54c-1,.31.82,1.53-2.07,11-.89,2.9-3.68,4.74-2.76,8.52.42,1.71,1.22,6.87,1.8,10.31,0,4.43-.52,14-4.19,22.94a11.24,11.24,0,0,0,7.93,3.78s2-7.57,2.13-8.75c0,0,.82,8.87,1.42,9.23,0,0,13.72.94,20.23-4.5,0,0-7.36-6.87-4.93-24.32C252.25,144.65,252.81,144.26,255.25,138.16Z"></path><path class="cls-13" d="M234.82,118.61a8.4,8.4,0,0,1-1.35-.49c-3-1.41-4.72-4.64-5.21-7.89-.9-6,.47-12.22,6-15.49,5.79-3.44,12.3-1.43,16.14,3.93,3.1,4.31,4,11.8.9,16.41-2.19,3.28-6.74,3.75-10.68,3.91A19.17,19.17,0,0,1,234.82,118.61Z"></path><path class="cls-14" d="M246.56,121.12a40.44,40.44,0,0,1,0-7.28L234,114c3.6,8.21,1.16,8.48,1.16,8.48l-.76,10.07,1.42,8.31s13.11-16.17,12.52-16.66A5.42,5.42,0,0,1,246.56,121.12Z"></path><path class="cls-15" d="M234.18,118a9.69,9.69,0,0,1-1.54-3.8c-.54-2.12-1.32-10.69,1.73-11.52a2.26,2.26,0,0,1,1.93.53,9.3,9.3,0,0,1,1.36,1.57,14.79,14.79,0,0,0,4.32,3.71c1.34.78,3.67,1.48,4.4,3,1.66,3.36-1.63,8.63-5.87,9.31C237.94,121.38,235.66,120.05,234.18,118Z"></path><path class="cls-16" d="M232.15,130.82s3.14-2.3,2.08-8.4c-.12-.67,1.3-.41,1.3-.41s.39,2.22.47,3c.3,2.78.65,5.44.18,15,0,0,8.34-16.05,11.18-17.21,1.66-.68,2.63,1.51,2.63,1.51a11.16,11.16,0,0,0-4.76,10.47s-2.76,0-8.43,6.21c-.37.4-1.37,1.94-1.75,2.4-.08.09.06-3.56-.17-5.33C234.17,132.57,232.15,130.82,232.15,130.82Z"></path><path class="cls-17" d="M250,130.53c.95-4.68,5.34-4,6.65-2.12,4.24,6.2,3.48,23.65,3.65,25.9.19,2.71.34,6,.26,8.43-.33,9.75-4.78,16.58-5.68,26.36a41.75,41.75,0,0,0-.17,5.32c.09,2.74-1.79,7.82-5.51,6.39-1.22-.47-2.1-1.31-1.77-2.57.21-.91.65-1.75.92-2.66.34-1.17,0-.91,0-.91a9.92,9.92,0,0,1-1.11,2.5c-.36.18-1.4.11-1.47-.66a15.7,15.7,0,0,1,2.18-5.95c.56-.83,1.72-1.53,2-2.79a84.74,84.74,0,0,0,1.33-11.27c.89-11.72,1-11.89,1.78-14.56a12.23,12.23,0,0,0-.06-4.85C251.38,148.1,248.36,138.71,250,130.53Z"></path><path class="cls-10" d="M249.58,128.49c-1.19,2.17-.62,14.37,2.84,29,0,0,5.5,1.24,8.78-1.6,0,0-.88-16.92-1.39-20.35s-2.3-9.22-6.95-8.85C252.86,126.71,250.41,127,249.58,128.49Z"></path><path class="cls-18" d="M127.89,309.27l7.4-.25c0,2.54-.25,1,.05,2.49,0,0,.45,1.77,3.6.2l3.59-1.66,5.33,2.81-12.7,6.88L127.5,316A18.83,18.83,0,0,0,127.89,309.27Z"></path><path class="cls-18" d="M153.29,323.75l7.59-.89A13,13,0,0,0,161,326s.92.92,4.14-.69l2.52-1.78,6,3.21-12.64,8-7.38-1A61.77,61.77,0,0,1,153.29,323.75Z"></path><path class="cls-13" d="M153,328.75a12,12,0,0,0,6.55,1.75c5.44-.16,9.69-1.84,10.09-2.91a1.24,1.24,0,0,0-.39-1.68c-1.11-1-2.4-1.38-5.27-.51a49.9,49.9,0,0,1,7.4-3.73c2.33-.86,3.59-.19,5.43.58.59.25,2.09,1.18,2.13,1.85.09,1.3.15,2.66-.29,3.2-2,2.5-7.56,5.39-10,6.56-2.92,1.38-7.4,4.1-8.72,4.62-2.21.87-4.16-.17-6.12-1.12a2,2,0,0,1-1.05-1.3A13.75,13.75,0,0,1,153,328.75Z"></path><path class="cls-13" d="M127.45,315.08a11.81,11.81,0,0,0,6.55,1.75c5.44-.15,9.68-1.84,10.08-2.91a1.23,1.23,0,0,0-.38-1.67c-1.12-1-2.4-1.38-5.28-.52a51.22,51.22,0,0,1,7.41-3.72c2.32-.86,3.58-.19,5.43.58.59.25,2.08,1.18,2.13,1.84.08,1.31.15,2.66-.29,3.2-2,2.51-7.7,4.59-9.5,5.39a26.66,26.66,0,0,0-6,3.29c-1.08.86-2,2-3.28,2.5-2.22.87-4.17-.16-6.13-1.11a1.92,1.92,0,0,1-1-1.3A13.68,13.68,0,0,1,127.45,315.08Z"></path><path class="cls-19" d="M168.63,138.56l-4.37,4.75-5.68-1L157.7,134l12.67-7.18.26.36a2.82,2.82,0,0,1,.18,3.09l-1.8,3.15Z"></path><path class="cls-20" d="M145.39,147.57c.46-1.6,3.09-5.39,3.46-12.2.12-2.18,2.52-1,4.17-.63,3.78.89,11.44-.16,11.44-.16s-4,10.49-3.56,16.09C161.12,153.48,145,149,145.39,147.57Z"></path><path class="cls-21" d="M136.21,171.47a96.8,96.8,0,0,1-13.76-5.15c-3,10.42-3.84,22.45-3.24,24,4.09,8.34,9.71,10.35,13.49,14.38,2.78-1.06,3.37-6.21,3.37-6.21l-2.89-12.61S135.32,176.67,136.21,171.47Z"></path><path class="cls-10" d="M166.38,325.94c-.56,1-8.47,3.74-15.29.35,0,0,.26-30.63,1-54.15l-2.33-24.82-4.65,26.11s-5.41,21.1-4.4,39.3c-1,1.51-13.11,3.52-16.61-1,0,0,1.63-10.14,3.69-39.32.48-6.93,2.18-19.74,1.89-26.73-.88-21.29-.49-36.25,4.85-40.25l33.33.79a432.26,432.26,0,0,1,2.33,60C169.66,282.18,166.9,313,166.38,325.94Z"></path><path class="cls-3" d="M131.22,148.61a25.63,25.63,0,0,1,12.68-3.89c11.42-.75,18.09,4.46,21.82,7.16,9.49,6.9,8.87,23.31,8.87,23.31s-4.37,4.84-3.67,8.88c2.13,12.31.6,35.52.6,35.52s-33.07,9.81-43.18-5.37c0,0,4.6-26.48,1.52-39,0,0-6.6-1.57-9.46-5.91C120.4,169.28,120.43,156.52,131.22,148.61Z"></path><path class="cls-13" d="M171.83,127.6c5.33-5.24,1.06-9-2.62-8.82-2.6.13-10.41-4.25-14-1.46-1.49,1.17-3.18,2-4.45,3.43a9.78,9.78,0,0,0-2.13,4.13,25.7,25.7,0,0,0-.3,7,10.31,10.31,0,0,0,.6,4.05,5.44,5.44,0,0,0,2.3,2.78,7.56,7.56,0,0,0,5.2.16,24.87,24.87,0,0,0,4.46-2.32,16.3,16.3,0,0,1,2-1.09,3.44,3.44,0,0,1,1.11-.17l-1.23,1.18a12.85,12.85,0,0,0-2.06,2.64,3.77,3.77,0,0,0-.7,3.11,7.66,7.66,0,0,0,.89,2.36c1,1.45,2.68,2.53,4.41,1.74,1.08-.49,1.36-2.33,1.58-3.36a2,2,0,0,0-.67-2.29c-.14-.08-1.37-.45-1.37-.48s-.06-3.5-.09-5l2.22-5.5C168.68,128.17,170.63,128.78,171.83,127.6Z"></path><path class="cls-22" d="M160.15,175.19c8.11,12.9,21.18,19.53,21.18,19.53l4.62.59s7.81-1.66,17.16-11a9.93,9.93,0,0,1,2-1,17.67,17.67,0,0,0,2.29-1.45,7.54,7.54,0,0,0,3.09-4.05,7.86,7.86,0,0,0-.48-4.92,1.59,1.59,0,0,0-2.4-.32l-3.25,2.82c-.07-.78.1-4.09-1-3.93a3.48,3.48,0,0,0-2.18,2.12l-1.35,2.55-.41,4.76s-8.93,1.84-13,4.2c0,0-9.35-17.39-15.74-22.36C165.24,158.54,152.07,162.33,160.15,175.19Z"></path><path class="cls-3" d="M178.85,170.23s-6.75,10.29-22.36,10.29c0,0-10.06-19.17.94-24.85C157.43,155.67,173.29,145.73,178.85,170.23Z"></path><path class="cls-23" d="M208.22,169.07,205,175.82c-.19.61-1.25,1.43-1.86,1.24h0a1.17,1.17,0,0,1-.75-1.54l1.63-4.05Z"></path><polygon class="cls-5" points="121.19 48.78 121.19 14.47 58.46 51.4 58.46 85.7 96.99 62.75 109.09 69.67 109.09 55.77 121.19 48.78"></polygon><path class="cls-3" d="M112.68,33.57a2.64,2.64,0,0,0-2-1.51,3.4,3.4,0,0,0-2.16.52c-2.31,1.33-4,4.51-4.12,4.68a3.87,3.87,0,0,0-4.13.08,7.54,7.54,0,0,0-2.16,2,12.32,12.32,0,0,0-2,3.82c-.78,2.48-1.28,7.59,8.32,7.52C114,39.65,113.46,35.16,112.68,33.57Z"></path><path class="cls-18" d="M74.21,57.62a22.33,22.33,0,0,0-2,1.09c-.42.24-.86.5-1.26.75l0-4.16,5.36-3.09a2.07,2.07,0,0,0,.93-1.61c0-.59-.42-.83-.94-.53L70,53.7A2,2,0,0,0,69,55.31l0,6.33a.62.62,0,0,0,.29.61.64.64,0,0,0,.63-.07l.06,0c.58-.37,1.38-.85,2.1-1.26s1.53-.86,1.72-1a1.25,1.25,0,0,1,1.65.6,4.74,4.74,0,0,1-.16,3.58,6.17,6.17,0,0,1-2.83,3.17,12,12,0,0,1-2.89,1.14,1,1,0,0,0-.25.1,2.1,2.1,0,0,0-.89,1.3c-.14.65.15,1.08.65,1a13.32,13.32,0,0,0,3.4-1.36A9.9,9.9,0,0,0,77,64.17c.81-2.19.88-4.26.21-5.53A2.25,2.25,0,0,0,74.21,57.62Z"></path><path class="cls-18" d="M91.59,56.89l-5.91-6,5-7.54a1.88,1.88,0,0,0,.31-1,.63.63,0,0,0-.2-.51.59.59,0,0,0-.68,0,1.6,1.6,0,0,0-.54.53l-5.46,8.3L84,50.9a1.52,1.52,0,0,0-.21.36l-.4.61,0-5c0-.56-.4-.79-.89-.51a1.92,1.92,0,0,0-.87,1.53l0,15.4c0,.57.39.8.88.52a2,2,0,0,0,.89-1.54l0-7.76,1-1.47,5.84,5.88c.16.2.42.21.72,0a1.77,1.77,0,0,0,.51-.49,1.86,1.86,0,0,0,.36-1A.65.65,0,0,0,91.59,56.89Z"></path></g><g id="Background_color"><path class="cls-24" d="M75,107.4c4.09-2.37,7.42-.47,7.44,4.24A16.29,16.29,0,0,1,75,124.43c-4.1,2.37-7.43.47-7.44-4.23A16.27,16.27,0,0,1,75,107.4Z"></path><path class="cls-25" d="M77.71,110.35c.9-.52,1.64-.1,1.64.94a.93.93,0,0,1-.42.73c-.23.14-.43,0-.43-.24,0-.5-.35-.7-.79-.45a1.74,1.74,0,0,0-.78,1.36.94.94,0,0,1-.42.73.27.27,0,0,1-.43-.25A3.61,3.61,0,0,1,77.71,110.35Z"></path><path class="cls-25" d="M78.94,114.18a.27.27,0,0,1,.16-.06c.22,0,.32.21.23.51a10.44,10.44,0,0,1-1,2.23,9.93,9.93,0,0,1-1.45,2,7.56,7.56,0,0,1-1.78,1.44,4.37,4.37,0,0,1-1.78.62,2.44,2.44,0,0,1-1.46-.29,2.4,2.4,0,0,1-1-1.1.76.76,0,0,1,.22-.77,1,1,0,0,1,.16-.14c.17-.09.33-.07.4.07a2,2,0,0,0,.8.91,2,2,0,0,0,1.19.23,3.7,3.7,0,0,0,1.45-.5,6.71,6.71,0,0,0,1.45-1.18,8.71,8.71,0,0,0,1.18-1.6,8.85,8.85,0,0,0,.8-1.82A.85.85,0,0,1,78.94,114.18Z"></path><path class="cls-25" d="M72.48,113.37c.91-.52,1.64-.1,1.64.94a.92.92,0,0,1-.42.73c-.23.13-.42,0-.42-.24,0-.5-.36-.7-.79-.45a1.72,1.72,0,0,0-.79,1.35,1,1,0,0,1-.42.74c-.23.13-.42,0-.43-.25A3.61,3.61,0,0,1,72.48,113.37Z"></path><path class="cls-26" d="M75.81,104.31l0,0,0,0-.27-.14,0,0,0,0L75,104h0c-.12,0-.24-.06-.37-.09h-.1l-.33,0h-.6l-.5.05h0l-.33.06-.11,0-.21.05h0c-.14,0-.27.08-.4.12l-.08,0-.33.13h-.05l-.08,0-.35.16-.13.07c-.16.08-.32.16-.47.25s-.39.24-.59.37l-.1.06-.54.4-.11.08q-.27.21-.54.45l0,0-.51.47,0,0,0,0-.38.39h0l-.36.39,0,0,0,0c-.19.21-.37.44-.55.66v0l0,0c-.14.19-.28.37-.41.56l0,.06,0,0c-.13.18-.26.37-.38.56l0,.05,0,.08-.29.47,0,.08v0c-.11.18-.21.36-.31.55l0,0,0,.09-.23.45,0,.09,0,.06c-.09.19-.18.38-.26.57v0s0,0,0,.06c-.08.17-.15.34-.22.52l0,.08,0,.07c-.07.21-.15.41-.22.62h0v0c-.07.21-.14.42-.2.64a.31.31,0,0,1,0,.08.06.06,0,0,0,0,0c-.07.25-.13.5-.18.74a.25.25,0,0,0,0,.07s0,.06,0,.09,0,.2,0,.3a1.18,1.18,0,0,0,0,.2c0,.1,0,.2-.05.3a.78.78,0,0,1,0,.14v0c0,.22-.05.43-.06.64a.57.57,0,0,0,0,.13c0,.22,0,.44,0,.65,0,2.34.83,4,2.16,4.75L69.73,125c-1.33-.77-2.15-2.42-2.16-4.75,0-.22,0-.43,0-.65a.57.57,0,0,1,0-.13c0-.21,0-.42.06-.64l0-.17c0-.1,0-.2,0-.3a1.55,1.55,0,0,1,0-.21c0-.09,0-.19,0-.29a1.24,1.24,0,0,1,0-.16c0-.24.11-.49.18-.74l0-.12c.06-.22.13-.43.2-.64v-.05c.07-.21.15-.41.23-.62l0-.15c.07-.18.14-.35.22-.52l0-.08c.08-.19.17-.38.26-.57a1,1,0,0,0,.07-.15l.23-.45.07-.13c.1-.19.2-.37.31-.55l.06-.11c.09-.16.19-.31.29-.47l.08-.13c.13-.19.25-.38.38-.56l.06-.09c.13-.19.27-.37.41-.56l.06-.07q.25-.35.54-.66l.07-.09.36-.39h0c.13-.14.25-.27.38-.39l.08-.08.51-.47,0,0q.27-.24.54-.45l.11-.08.54-.4.1-.07c.2-.12.39-.25.59-.36s.31-.18.47-.25l.13-.07.35-.16.13,0,.33-.13.08,0a3,3,0,0,1,.4-.12l.23-.06.11,0,.33-.06.5,0h.09a3.08,3.08,0,0,1,.43,0h.08l.33,0h.1l.38.09h0l.34.12.09,0,.27.14.09,0Z"></path><path class="cls-24" d="M75,154.81c4.09-2.36,7.42-.46,7.44,4.24A16.33,16.33,0,0,1,75,171.85c-4.1,2.36-7.43.46-7.44-4.24A16.3,16.3,0,0,1,75,154.81Z"></path><path class="cls-25" d="M77.71,157.77c.9-.52,1.64-.1,1.64.93a.93.93,0,0,1-.42.73c-.23.14-.43,0-.43-.24,0-.5-.35-.7-.79-.45a1.74,1.74,0,0,0-.78,1.36.93.93,0,0,1-.42.73c-.23.14-.43,0-.43-.24A3.6,3.6,0,0,1,77.71,157.77Z"></path><path class="cls-25" d="M78.94,161.59a.52.52,0,0,1,.16-.06c.22,0,.32.21.23.51a10.74,10.74,0,0,1-1,2.24,10.15,10.15,0,0,1-1.45,2,7.62,7.62,0,0,1-1.78,1.45,4.5,4.5,0,0,1-1.78.61,2.44,2.44,0,0,1-1.46-.29,2.4,2.4,0,0,1-1-1.1.76.76,0,0,1,.22-.77.61.61,0,0,1,.16-.13c.17-.1.33-.08.4.07a2,2,0,0,0,.8.9,2,2,0,0,0,1.19.23,3.54,3.54,0,0,0,1.45-.5,6.65,6.65,0,0,0,1.45-1.17,8.46,8.46,0,0,0,1.18-1.61,8.85,8.85,0,0,0,.8-1.82A.88.88,0,0,1,78.94,161.59Z"></path><path class="cls-25" d="M72.48,160.79c.91-.53,1.64-.1,1.64.93a.9.9,0,0,1-.42.73c-.23.14-.42,0-.42-.24,0-.5-.36-.7-.79-.45a1.72,1.72,0,0,0-.79,1.36.93.93,0,0,1-.42.73c-.23.14-.42,0-.43-.24A3.58,3.58,0,0,1,72.48,160.79Z"></path><path class="cls-27" d="M75.81,151.73l0,0,0,0-.27-.13,0,0h0a2,2,0,0,0-.34-.12h0l-.37-.08h-.1l-.33,0h-.6a4.23,4.23,0,0,0-.5,0h0l-.33.06-.11,0-.21.06h0l-.4.12-.08,0-.33.13-.05,0-.08,0-.35.16L71,152c-.16.08-.32.16-.47.25l-.59.37-.1.06-.54.4-.11.08-.54.45,0,0-.51.47,0,0,0,0-.38.39v0q-.18.18-.36.39l0,0,0,0c-.19.22-.37.44-.55.67v0l0,.05c-.14.18-.28.37-.41.56l0,0,0,0c-.13.19-.26.37-.38.56l0,.05a.41.41,0,0,0,0,.09c-.1.15-.2.31-.29.47l0,.07v0c-.11.18-.21.37-.31.55l0,0,0,.09-.23.44a1,1,0,0,1,0,.1l0,.05c-.09.19-.18.38-.26.57v0s0,0,0,.06-.15.35-.22.52l0,.09,0,.07-.22.61V161c-.07.21-.14.43-.2.64a.24.24,0,0,1,0,.08.08.08,0,0,0,0,0q-.1.38-.18.75a.14.14,0,0,0,0,.06s0,.07,0,.1a2.5,2.5,0,0,0,0,.29,1.42,1.42,0,0,0,0,.2c0,.1,0,.2-.05.3a.68.68,0,0,1,0,.14v0q0,.31-.06.63a.66.66,0,0,0,0,.14c0,.21,0,.43,0,.64,0,2.34.83,4,2.16,4.76l4.42,2.56c-1.33-.77-2.15-2.41-2.16-4.75,0-.21,0-.43,0-.64a.66.66,0,0,1,0-.14q0-.32.06-.63l0-.18c0-.1,0-.2,0-.3a1.42,1.42,0,0,1,0-.2,2.5,2.5,0,0,1,0-.29,1,1,0,0,1,0-.17c0-.24.11-.49.18-.74l0-.12c.06-.21.13-.43.2-.64v-.05c.07-.2.15-.41.23-.62l0-.15c.07-.17.14-.35.22-.52l0-.08c.08-.19.17-.38.26-.57a1,1,0,0,0,.07-.15c.08-.15.15-.3.23-.44l.07-.14c.1-.18.2-.37.31-.55l.06-.1c.09-.16.19-.32.29-.47l.08-.14c.13-.19.25-.38.38-.56l.06-.08c.13-.19.27-.38.41-.56l.06-.07c.17-.23.35-.45.54-.67l.07-.08.36-.4h0l.38-.39a.6.6,0,0,0,.08-.08l.51-.47,0,0,.54-.45.11-.08.54-.4.1-.06.59-.37.47-.25.13-.07.35-.16.13-.05.33-.13.08,0,.4-.12.23-.06.11,0,.33-.07a4.21,4.21,0,0,1,.5,0h.09c.15,0,.29,0,.43,0h.08l.33,0,.1,0,.38.08h0l.34.11.09,0,.27.14.09.05Z"></path><path class="cls-24" d="M75,200.35c4.09-2.36,7.42-.47,7.44,4.24A16.33,16.33,0,0,1,75,217.39c-4.1,2.36-7.43.46-7.44-4.24A16.27,16.27,0,0,1,75,200.35Z"></path><path class="cls-25" d="M77.71,203.3c.9-.52,1.64-.1,1.64.94a.93.93,0,0,1-.42.73c-.23.14-.43,0-.43-.24,0-.5-.35-.7-.79-.45a1.74,1.74,0,0,0-.78,1.36.94.94,0,0,1-.42.73c-.23.13-.43,0-.43-.24A3.63,3.63,0,0,1,77.71,203.3Z"></path><path class="cls-25" d="M78.94,207.13a.27.27,0,0,1,.16-.06c.22,0,.32.21.23.51a10.44,10.44,0,0,1-1,2.23,9.93,9.93,0,0,1-1.45,2,7.56,7.56,0,0,1-1.78,1.44,4.37,4.37,0,0,1-1.78.62,2.44,2.44,0,0,1-1.46-.29,2.4,2.4,0,0,1-1-1.1.76.76,0,0,1,.22-.77.61.61,0,0,1,.16-.13c.17-.1.33-.08.4.07a1.88,1.88,0,0,0,2,1.13,3.7,3.7,0,0,0,1.45-.5,7,7,0,0,0,1.45-1.17,9.14,9.14,0,0,0,2-3.43A.85.85,0,0,1,78.94,207.13Z"></path><path class="cls-25" d="M72.48,206.32c.91-.52,1.64-.1,1.64.94a.9.9,0,0,1-.42.73c-.23.14-.42,0-.42-.24,0-.5-.36-.7-.79-.45a1.72,1.72,0,0,0-.79,1.35,1,1,0,0,1-.42.74c-.23.13-.42,0-.43-.25A3.61,3.61,0,0,1,72.48,206.32Z"></path><path class="cls-28" d="M75.81,197.26l0,0,0,0-.27-.14,0,0,0,0-.34-.11h0l-.37-.09h-.1l-.33,0h-.08a3.08,3.08,0,0,0-.43,0H73.6l-.5,0h0l-.33.07-.11,0-.21.05h0l-.4.12-.08,0-.33.13h-.05a.2.2,0,0,1-.08,0l-.35.16-.13.07c-.16.08-.32.16-.47.25s-.39.24-.59.37l-.1.06-.54.4-.11.08-.54.45,0,0-.51.47,0,0,0,0-.38.39h0l-.36.4,0,0,0,.05-.55.66v0l0,.06c-.14.18-.28.37-.41.56a.1.1,0,0,0,0,.05l0,0c-.13.18-.26.37-.38.56l0,0a.41.41,0,0,0,0,.09c-.1.15-.2.31-.29.47l0,.07v0c-.11.18-.21.36-.31.55l0,0,0,.1c-.08.14-.15.29-.23.44l0,.09,0,.06c-.09.19-.18.38-.26.57v0s0,0,0,.06c-.08.17-.15.35-.22.52l0,.08,0,.07c-.07.21-.15.42-.22.62h0v0c-.07.21-.14.43-.2.64a.24.24,0,0,1,0,.08.06.06,0,0,0,0,0c-.07.25-.13.5-.18.74a.25.25,0,0,0,0,.07s0,.06,0,.1a2.5,2.5,0,0,0,0,.29,1.18,1.18,0,0,0,0,.2c0,.1,0,.2-.05.3a.78.78,0,0,1,0,.14v0q0,.32-.06.63a.66.66,0,0,0,0,.14c0,.21,0,.43,0,.64,0,2.34.83,4,2.16,4.75l4.42,2.57c-1.33-.77-2.15-2.41-2.16-4.75,0-.21,0-.43,0-.65a.57.57,0,0,1,0-.13c0-.21,0-.42.06-.64l0-.17c0-.1,0-.2,0-.3a1.18,1.18,0,0,1,0-.2,2.5,2.5,0,0,1,0-.29,1,1,0,0,1,0-.17c0-.24.11-.49.18-.74l0-.12c.06-.22.13-.43.2-.64v0c.07-.21.15-.41.23-.62l0-.15c.07-.18.14-.35.22-.52l0-.08c.08-.19.17-.38.26-.57a1,1,0,0,0,.07-.15l.23-.45.07-.13c.1-.19.2-.37.31-.55l.06-.11.29-.47.08-.13c.13-.19.25-.38.38-.56l.06-.09c.13-.19.27-.37.41-.56l.06-.07c.17-.22.35-.45.54-.66l.07-.09.36-.39h0l.38-.39.08-.08.51-.47,0,0,.54-.45.11-.08.54-.4.1-.06c.2-.13.39-.26.59-.37l.47-.25.13-.07.35-.16.13-.05.33-.13.08,0,.4-.12.23-.06.11,0,.33-.07.5,0h.6l.33,0h.1l.38.09h0l.34.12.09,0,.27.14.09,0Z"></path></g></svg> 